<?xml version="1.0" encoding="UTF-8" standalone="no"?>
<!-- Created with Inkscape (http://www.inkscape.org/) -->
<svg xmlns:svg="http://www.w3.org/2000/svg" xmlns="http://www.w3.org/2000/svg" version="1.0" width="476.09967" height="558.12744" id="svg2">
  <defs id="defs4"/>
  <g transform="translate(-121.8823,-241.4451)" id="layer1">
    <path d="M 166.99998,794.93101 C 200.69713,756.78605 250.22621,725.01977 281.19954,686.17252 L 229.85325,684.07646 L 294.63183,612.55677 L 341.27731,612.81661 L 387.92279,613.07646 L 373.94108,622.57646 C 326.18801,655.02271 317.55837,661.17826 317.53005,662.81458 C 317.50208,664.43109 320.17136,664.57102 355.682,664.81458 L 393.86401,665.07646 L 306.49131,716.07646 C 258.91649,744.00184 211.05769,771.43859 163.49998,799.39257 C 162.12498,800.2035 163.69998,798.1958 166.99998,794.93101 z " style="fill:#da251c;fill-opacity:1" id="path1982"/>
    <path d="M 300.49998,771.04286 C 283.1068,768.61237 265.13504,763.95415 251.07591,758.23231 L 245.15185,755.82132 L 259.99998,746.91407 L 268.36634,749.72119 C 381.94208,777.46005 474.072,732.78194 538.44916,640.37839 C 562.25029,604.89626 576.79764,567.04851 583.15156,524.07646 C 585.59958,507.5203 585.61063,472.68136 583.17307,456.28854 C 573.68317,392.46826 539.48108,338.95482 488.91583,308.81132 L 480.4782,303.78139 C 484.10385,300.6871 487.40073,297.10849 491.45554,294.57646 C 492.70349,294.57646 508.99969,305.0764 515.68442,310.18757 C 524.17236,316.6775 541.39599,333.43428 548.556,342.16817 C 567.5477,365.33453 582.80655,395.41854 590.56608,424.99431 C 596.82314,448.84338 597.96175,458.52958 597.98138,488.07646 C 597.99716,511.83709 597.72066,516.69615 595.67675,528.57646 C 587.00636,578.97351 569.38364,620.06024 538.84549,661.07646 C 493.4943,721.98828 426.76784,762.49659 357.53799,771.14465 C 343.44079,772.90564 313.44745,772.85212 300.49998,771.04286 z " style="fill:#2a1770;fill-opacity:1" id="path1980"/>
    <path d="M 207.4358,733.67332 C 162.05534,699.6 133.93675,651.31212 123.8177,590.07646 C 121.03769,573.25312 121.30122,530.0612 124.29552,511.76531 C 133.05383,458.2499 155.07931,410.09947 189.83568,368.48635 C 234.47334,315.04257 293.18081,281.01065 358.99998,270.4241 C 371.73106,268.3764 410.54671,268.66698 423.87761,270.90978 C 434.52882,272.70176 466.21161,278.71488 463.18696,280.42116 L 447.52304,289.25758 C 446.2928,289.95159 437.82498,287.64253 431.49998,286.25434 C 340.28985,266.23586 238.2677,313.41335 179.95136,402.57646 C 156.88815,437.83908 142.74504,475.32362 136.76275,517.0424 C 134.74193,531.135 134.49437,567.35031 136.32844,580.57646 C 142.18736,622.82729 156.78101,657.88958 181.40513,688.87644 C 192.31164,702.60114 208.83346,717.85911 222.74998,727.05859 C 225.91248,729.14916 228.49998,731.15033 228.49998,731.50563 C 228.49998,732.24436 219.1839,741.57646 218.44643,741.57646 C 218.17976,741.57646 213.22498,738.02004 207.4358,733.67332 z " style="fill:#27156b;fill-opacity:1;stroke:none" id="path1978"/>
    <path d="M 402.49998,662.88984 L 428.03929,500.82646 L 449.46452,500.32646 L 441.16732,556.82646 L 505.99271,556.32646 L 515.65889,497.57646 L 536.48531,499.32646 L 511.0051,663.57646 L 489.49998,662.97383 L 501.49998,582.17909 L 436.43766,581.32646 L 423.92737,663.07646 L 402.49998,662.88984 z " style="fill:#272174;fill-opacity:1" id="path1976"/>
    <path d="M 294.49998,598.5528 L 321.01979,438.82646 L 321.53808,436.57646 L 414.53808,436.57646 L 414.0416,438.82646 L 411.49998,457.63552 L 344.04343,459.07646 L 338.35545,498.09859 L 404.44015,500.32646 L 402.66968,511.07646 L 400.95904,520.07646 L 335.27005,521.40639 L 325.50687,575.07646 L 389.92431,576.35391 L 389.63306,588.32646 L 388.19315,599.57646 L 294.49998,598.5528 z " style="fill:#272174;fill-opacity:1" id="path1974"/>
    <path d="M 156.24998,521.76004 L 153.49998,521.07067 L 248.86424,371.86455 L 292.45662,521.31253 L 156.24998,521.76004 z M 263.49998,500.74989 L 249.45607,448.07646 L 240.5633,416.33917 L 188.93796,499.87748 L 263.49998,500.74989 z " style="fill:#272174;fill-opacity:1" id="path1972"/>
    <path d="M 325.05298,420.7632 L 391.21829,373.23007 L 314.58228,371.07646 L 537.99998,241.44505 L 428.68266,349.71741 L 479.50909,352.07646 L 446.83111,387.82646 L 414.15314,423.57646 L 321.10597,423.57646 L 325.05298,420.7632 z " style="fill:#da251c;fill-opacity:1" id="path1966"/>
  </g>
</svg>